<svg id="Logo" xmlns="http://www.w3.org/2000/svg" xmlns:xlink="http://www.w3.org/1999/xlink" viewBox="0 0 512 512"><defs><style>.cls-1{fill:gray;}.cls-2{fill:#fff;}.cls-3{fill:url(#linear-gradient);}.cls-4{fill:url(#linear-gradient-2);}</style><linearGradient id="linear-gradient" x1="158.15" y1="372.61" x2="353.85" y2="139.39" gradientUnits="userSpaceOnUse"><stop offset="0" stop-color="#001a4d"/><stop offset="0.14" stop-color="#002c5f"/><stop offset="0.36" stop-color="#047"/><stop offset="0.5" stop-color="#004d80"/><stop offset="0.73" stop-color="#005680"/><stop offset="1" stop-color="#006680"/></linearGradient><linearGradient id="linear-gradient-2" x1="162.8" y1="367.07" x2="351.83" y2="141.79" gradientUnits="userSpaceOnUse"><stop offset="0" stop-color="#039"/><stop offset="0.11" stop-color="#0050b6"/><stop offset="0.28" stop-color="#0078de"/><stop offset="0.42" stop-color="#0090f6"/><stop offset="0.5" stop-color="#09f"/><stop offset="0.64" stop-color="#00a2ff"/><stop offset="0.86" stop-color="#00baff"/><stop offset="1" stop-color="#0cf"/></linearGradient></defs><polygon class="cls-1" points="112 192 248 64 248 144 176 208 112 248 112 192"/><polygon class="cls-2" points="248 64 248 144 112 248 112 192 248 64"/><polygon class="cls-1" points="400 320 264 448 264 368 336 304 400 264 400 320"/><polygon class="cls-2" points="400 264 400 320 288 292 400 264"/><polygon class="cls-2" points="264 448 264 368 400 264 400 320 264 448"/><polygon class="cls-2" points="112 248 112 192 224 220 112 248"/><polygon class="cls-3" points="112 320 248 448 248 368 176 304 400 248 400 192 264 64 264 144 336 208 112 264 112 320"/><polygon class="cls-4" points="400 192 264 64 264 144 344.81 205.8 112 264 112 320 248 448 248 368 167.19 306.2 400 248 400 192"/></svg>