<svg id="Logo" xmlns="http://www.w3.org/2000/svg" xmlns:xlink="http://www.w3.org/1999/xlink" viewBox="0 0 1792 512"><defs><style>.cls-1{fill:#fff;}.cls-2{fill:gray;}.cls-3{fill:url(#linear-gradient);}.cls-4{fill:url(#linear-gradient-2);}</style><linearGradient id="linear-gradient" x1="126.15" y1="372.61" x2="321.85" y2="139.39" gradientUnits="userSpaceOnUse"><stop offset="0" stop-color="#001a4d"/><stop offset="0.14" stop-color="#002c5f"/><stop offset="0.36" stop-color="#047"/><stop offset="0.5" stop-color="#004d80"/><stop offset="0.73" stop-color="#005680"/><stop offset="1" stop-color="#006680"/></linearGradient><linearGradient id="linear-gradient-2" x1="130.8" y1="367.07" x2="319.83" y2="141.79" gradientUnits="userSpaceOnUse"><stop offset="0" stop-color="#039"/><stop offset="0.11" stop-color="#0050b6"/><stop offset="0.28" stop-color="#0078de"/><stop offset="0.42" stop-color="#0090f6"/><stop offset="0.5" stop-color="#09f"/><stop offset="0.64" stop-color="#00a2ff"/><stop offset="0.86" stop-color="#00baff"/><stop offset="1" stop-color="#0cf"/></linearGradient></defs><path class="cls-1" d="M622,127.55v35.71L498,346.81H627v39.56H440V349.5L563.65,167.1H441.92V127.55Z"/><path class="cls-1" d="M636.26,133.31a27.65,27.65,0,1,1,55.3,0,27.11,27.11,0,0,1-8.07,20,27.81,27.81,0,0,1-39.16,0A27.11,27.11,0,0,1,636.26,133.31Zm4.61,253.06V191.68H687V386.37Z"/><path class="cls-1" d="M836,191.68H882.1v177q0,46.08-26.69,69.31t-67.78,23.24q-38.4,0-67.2-13.83V400.57Q746.55,419,783,419q53,0,53-50.69v-16.9q-17.67,28.8-55.3,28.8-32.64,0-55.87-24t-23.23-69.69q0-42.24,22.08-69.7t58.17-27.46q36.48,0,54.15,30.34ZM791.86,342.59q18.81,0,31.48-14.78T836,289.21q0-31.09-12.29-45.69t-31.11-14.59q-20,0-31.48,15.55t-11.52,42q0,27.27,11.9,41.66T791.86,342.59Z"/><path class="cls-1" d="M1026.06,191.68h46.46V386.37h-46.46V354.49q-15.36,33.79-59.91,33.8-29.56,0-46.08-16.9t-16.51-48V191.68h46.08v121q0,18.44,9,28t24.76,9.6q20,0,31.3-13.44t11.33-40.71Z"/><path class="cls-1" d="M1142.52,191.68v34.56q13.44-36.09,49.15-36.1a60.55,60.55,0,0,1,13.06,1.15v44.55a48.64,48.64,0,0,0-19.59-3.84q-18.81,0-30.72,15.36t-11.9,38.4V386.37h-46.46l.38-194.69Z"/><path class="cls-1" d="M1291.36,389.44q-44.16,0-68.93-27.65t-24.77-70.66q0-44.53,25.73-73.53t68-29q44.92,0,69.5,28.22t24.58,71.62q0,44.16-24.77,72.57T1291.36,389.44Zm0-163.2q-21.88,0-33.6,18T1246,289.6q0,26.88,11.91,44.93t33.79,18q22.65,0,34.18-17.66T1337.44,290q0-28-11.14-45.89T1291.36,226.24Z"/><path class="cls-1" d="M1520.68,191.68h46.46V386.37h-46.46V354.49q-15.36,33.79-59.91,33.8-29.57,0-46.08-16.9t-16.51-48V191.68h46.08v121q0,18.44,9,28t24.76,9.6q20,0,31.3-13.44t11.33-40.71Z"/><path class="cls-1" d="M1706.49,197.82v40.71q-19.2-11.52-48-11.52-11.91,0-18.62,5.18a16,16,0,0,0-6.72,13.25,16.74,16.74,0,0,0,1,5.76,13.9,13.9,0,0,0,3.45,5.18c1.66,1.67,3.27,3.14,4.8,4.42a34.1,34.1,0,0,0,6.53,4l7.3,3.65q3.06,1.53,8.44,3.84c3.59,1.53,6.4,2.82,8.45,3.84q20.36,10,32.26,22.27t11.9,31.87q0,27.27-19.58,42.63t-52.23,15.36q-36.09,0-58.36-11.91V334.14q25.71,17.28,55.68,17.28,12.66,0,19.77-4.8a15.14,15.14,0,0,0,7.11-13.25,17.84,17.84,0,0,0-2.31-9q-2.29-4-8.83-7.87t-10.18-5.57q-3.64-1.73-14.4-6.34a7.56,7.56,0,0,1-1.72-.76,7.62,7.62,0,0,0-1.73-.77,13.37,13.37,0,0,1-1.92-.77q-42.63-19.2-42.63-55.3,0-26.86,20.36-42.24t51.07-15.36Q1686.91,189.37,1706.49,197.82Z"/><polygon class="cls-2" points="80 192 216 64 216 144 144 208 80 248 80 192"/><polygon class="cls-1" points="216 64 216 144 80 248 80 192 216 64"/><polygon class="cls-2" points="368 320 232 448 232 368 304 304 368 264 368 320"/><polygon class="cls-1" points="368 264 368 320 256 292 368 264"/><polygon class="cls-1" points="232 448 232 368 368 264 368 320 232 448"/><polygon class="cls-1" points="80 248 80 192 192 220 80 248"/><polygon class="cls-3" points="80 320 216 448 216 368 144 304 368 248 368 192 232 64 232 144 304 208 80 264 80 320"/><polygon class="cls-4" points="368 192 232 64 232 144 312.81 205.8 80 264 80 320 216 448 216 368 135.19 306.2 368 248 368 192"/></svg>