<svg id="zigurous-logo-primary" xmlns="http://www.w3.org/2000/svg" xmlns:xlink="http://www.w3.org/1999/xlink" viewBox="0 0 1366 512"><defs><style>.cls-1{fill:#111;}.cls-2{fill:#004a80;}.cls-3{fill:url(#Blue_Gradient_2);}</style><linearGradient id="Blue_Gradient_2" x1="167.24" y1="354.31" x2="280.76" y2="157.69" gradientUnits="userSpaceOnUse"><stop offset="0" stop-color="#003580"/><stop offset="0.04" stop-color="#004291"/><stop offset="0.11" stop-color="#005baf"/><stop offset="0.2" stop-color="#006ec7"/><stop offset="0.29" stop-color="#007bd8"/><stop offset="0.38" stop-color="#0083e2"/><stop offset="0.5" stop-color="#0086e5"/><stop offset="1" stop-color="#00bfff"/></linearGradient></defs><path class="cls-1" d="M489.34,169.54v23.8L406.66,315.71h86v26.37H368V317.5l82.43-121.6H369.28V169.54Z"/><path class="cls-1" d="M500.89,173.38a18.43,18.43,0,1,1,36.86,0,18.1,18.1,0,0,1-5.37,13.31,18.55,18.55,0,0,1-26.11,0A18.07,18.07,0,0,1,500.89,173.38ZM504,342.08V212.29h30.72V342.08Z"/><path class="cls-1" d="M636.11,212.29h30.72v118q0,30.72-17.79,46.21T603.85,392q-25.61,0-44.8-9.22V351.55q17.4,12.29,41.73,12.29,35.33,0,35.33-33.79V318.78Q624.32,338,599.24,338q-21.75,0-37.24-16t-15.49-46.46q0-28.15,14.72-46.46T600,210.75q24.32,0,36.1,20.23ZM606.67,312.9q12.54,0,21-9.86t8.45-25.73q0-20.73-8.19-30.46a26,26,0,0,0-20.74-9.73q-13.32,0-21,10.37t-7.68,28q0,18.18,7.93,27.78A25.09,25.09,0,0,0,606.67,312.9Z"/><path class="cls-1" d="M764.85,212.29h31V342.08h-31V320.83q-10.25,22.53-39.94,22.53-19.71,0-30.72-11.26t-11-32V212.29h30.72v80.64q0,12.29,6,18.69t16.51,6.4q13.32,0,20.87-9t7.55-27.14Z"/><path class="cls-1" d="M844.54,212.29v23q9-24.06,32.77-24.07a40.1,40.1,0,0,1,8.7.77v29.7a32.36,32.36,0,0,0-13-2.56q-12.56,0-20.49,10.24T844.54,275v67.07h-31l.26-129.79Z"/><path class="cls-1" d="M945.81,344.13q-29.44,0-45.95-18.43t-16.51-47.11q0-29.68,17.15-49t45.31-19.33q30,0,46.34,18.82t16.38,47.74q0,29.44-16.51,48.38T945.81,344.13Zm0-108.8q-14.59,0-22.4,12t-7.81,30.21q0,17.93,7.94,29.95t22.53,12q15.09,0,22.78-11.77t7.68-30q0-18.68-7.42-30.59T945.81,235.33Z"/><path class="cls-1" d="M1100.74,212.29h31V342.08h-31V320.83q-10.24,22.53-39.94,22.53-19.71,0-30.72-11.26t-11-32V212.29h30.72v80.64q0,12.29,6,18.69t16.51,6.4q13.32,0,20.87-9t7.55-27.14Z"/><path class="cls-1" d="M1226.66,216.38v27.14q-12.79-7.68-32-7.68-7.94,0-12.41,3.46a10.66,10.66,0,0,0-4.48,8.83,11.21,11.21,0,0,0,.64,3.84,9.27,9.27,0,0,0,2.3,3.45q1.66,1.68,3.2,3a23.3,23.3,0,0,0,4.35,2.69l4.87,2.43q2,1,5.63,2.56c2.39,1,4.26,1.88,5.63,2.56q13.58,6.66,21.51,14.85t7.93,21.24q0,18.18-13,28.42T1186,343.36q-24.06,0-38.91-7.94V307.26a65.28,65.28,0,0,0,37.12,11.52q8.44,0,13.18-3.2a10.08,10.08,0,0,0,4.74-8.83,11.85,11.85,0,0,0-1.54-6c-1-1.8-3-3.54-5.89-5.25s-5.16-2.95-6.78-3.71-4.83-2.18-9.6-4.23a4.92,4.92,0,0,1-1.15-.51,5,5,0,0,0-1.16-.51,9.79,9.79,0,0,1-1.27-.51q-28.42-12.81-28.42-36.87,0-17.91,13.57-28.16t34.05-10.24Q1213.61,210.75,1226.66,216.38Z"/><polygon points="128 213.33 218.67 128 218.67 181.33 170.67 224 128 250.67 128 213.33"/><polygon class="cls-1" points="218.67 128 218.67 181.33 128 250.67 128 213.33 218.67 128"/><polygon points="320 298.67 229.33 384 229.33 330.67 277.33 288 320 261.33 320 298.67"/><polygon class="cls-1" points="320 261.33 320 298.67 245.33 280 320 261.33"/><polygon class="cls-1" points="229.33 384 229.33 330.67 320 261.33 320 298.67 229.33 384"/><polygon class="cls-1" points="128 250.67 128 213.33 202.67 232 128 250.67"/><polygon class="cls-2" points="128 298.67 218.67 384 218.67 330.67 170.67 288 320 250.67 320 213.33 229.33 128 229.33 181.33 277.33 224 128 261.33 128 298.67"/><polygon class="cls-3" points="320 213.33 229.33 128 229.33 181.33 283.21 222.53 128 261.33 128 298.67 218.67 384 218.67 330.67 164.79 289.47 320 250.67 320 213.33"/></svg>