<svg id="zigurous-emblem-secondary" xmlns="http://www.w3.org/2000/svg" xmlns:xlink="http://www.w3.org/1999/xlink" viewBox="0 0 512 512"><defs><style>.cls-1{fill:#999;}.cls-2{fill:#fff;}.cls-3{fill:#004a80;}.cls-4{fill:url(#linear-gradient);}</style><linearGradient id="linear-gradient" x1="174.91" y1="396.46" x2="339.39" y2="111.57" gradientUnits="userSpaceOnUse"><stop offset="0" stop-color="#003580"/><stop offset="0.04" stop-color="#004291"/><stop offset="0.11" stop-color="#005baf"/><stop offset="0.2" stop-color="#006ec7"/><stop offset="0.29" stop-color="#007bd8"/><stop offset="0.38" stop-color="#0083e2"/><stop offset="0.5" stop-color="#0086e5"/><stop offset="1" stop-color="#00bfff"/></linearGradient></defs><polygon class="cls-1" points="112 192 248 64 248 144 176 208 112 248 112 192"/><polygon class="cls-2" points="248 64 248 144 112 248 112 192 248 64"/><polygon class="cls-1" points="400 320 264 448 264 368 336 304 400 264 400 320"/><polygon class="cls-2" points="400 264 400 320 288 292 400 264"/><polygon class="cls-2" points="264 448 264 368 400 264 400 320 264 448"/><polygon class="cls-2" points="112 248 112 192 224 220 112 248"/><polygon class="cls-3" points="112 320 248 448 248 368 176 304 400 248 400 192 264 64 264 144 336 208 112 264 112 320"/><polygon class="cls-4" points="400 192 264 64 264 144 344.81 205.8 112 264 112 320 248 448 248 368 167.19 306.2 400 248 400 192"/></svg>