<svg id="zigurous-emblem-mono-white" xmlns="http://www.w3.org/2000/svg" viewBox="0 0 512 512"><defs><style>.cls-1{fill:#fff;}</style></defs><polygon class="cls-1" points="112 192 248 64 248 144 176 208 112 248 112 192"/><polygon class="cls-1" points="248 64 248 144 112 248 112 192 248 64"/><polygon class="cls-1" points="400 320 264 448 264 368 336 304 400 264 400 320"/><polygon class="cls-1" points="400 264 400 320 288 292 400 264"/><polygon class="cls-1" points="264 448 264 368 400 264 400 320 264 448"/><polygon class="cls-1" points="112 248 112 192 224 220 112 248"/><polygon class="cls-1" points="112 320 248 448 248 368 176 304 400 248 400 192 264 64 264 144 336 208 112 264 112 320"/><polygon class="cls-1" points="112 264 112 320 400 248 400 192 112 264"/><polygon class="cls-1" points="264 64 264 144 400 248 400 192 264 64"/><polygon class="cls-1" points="248 448 248 368 112 264 112 320 248 448"/></svg>